{"title":"The 7th Voyage Of Sinbad (1958).mkv","uid":8228236,"size":1370367739,"categoryP":"video","categoryS":"movies","magnet":"?xt=urn:btih:ede98c7023360023b613d6e5417fedffca72836a&amp;dn=The+7th+Voyage+Of+Sinbad+%281958%29.mkv&amp;tr=udp%3A%2F%2Ftracker.openbittorrent.com%3A80&amp;tr=udp%3A%2F%2Fopen.demonii.com%3A1337&amp;tr=udp%3A%2F%2Ftracker.coppersurfer.tk%3A6969&amp;tr=udp%3A%2F%2Fexodus.desync.com%3A6969","seeders":0,"leechers":2,"uploader":"Beebe85","files":1,"time":1362665420,"description":"The 7th Voyage Of Sinbad (1958) DVDRip\n\n &lt;a href=&quot;\nhttp://www.imdb.com/title/tt0051337/&quot; rel=&quot;nofollow&quot; target=&quot;_NEW&quot;&gt;\nhttp://www.imdb.com/title/tt0051337/&lt;/a&gt;\n\n\nFormat                         : Matroska\nFormat version                 : Version 2\nFile size                      : 1.28 GiB\nDuration                       : 1h 24mn\nOverall bit rate               : 2 163 Kbps\nMovie name                     : NVE_DVD-Title1\nEncoded date                   : UTC 2013-03-06 19:38:29\nWriting application            : DVDFab\nWriting library                : libebml v0.7.8 + libmatroska v0.8.1\n\nVideo\nID                             : 1\nFormat                         : MPEG-4 Visual\nFormat profile                 : Advanced Simple@L5\nFormat settings, BVOP          : Yes\nFormat settings, QPel          : No\nFormat settings, GMC           : No warppoints\nFormat settings, Matrix        : Default (H.263)\nCodec ID                       : V_MPEG4/ISO/ASP\nCodec ID/Info                  : Advanced Simple Profile\nDuration                       : 1h 24mn\nBit rate                       : 1 928 Kbps\nWidth                          : 720 pixels\nHeight                         : 406 pixels\nDisplay aspect ratio           : 16:9\nFrame rate                     : 29.970 fps\nColor space                    : YUV\nChroma subsampling             : 4:2:0\nBit depth                      : 8 bits\nScan type                      : Progressive\nCompression mode               : Lossy\nBits/(Pixel*Frame)             : 0.220\nStream size                    : 1.14 GiB (89%)\nWriting library                : XviD 1.2.1 (UTC 2008-12-04)\nDefault                        : Yes\nForced                         : No\n\nAudio\nID                             : 2\nFormat                         : AC-3\nFormat/Info                    : Audio Coding 3\nMode extension                 : CM (complete main)\nCodec ID                       : A_AC3\nDuration                       : 1h 24mn\nBit rate mode                  : Constant\nBit rate                       : 192 Kbps\nChannel(s)                     : 2 channels\nChannel positions              : Front: L R\nSampling rate                  : 48.0 KHz\nBit depth                      : 16 bits\nCompression mode               : Lossy\nDelay relative to video        : -33ms\nStream size                    : 116 MiB (9%)\nDefault                        : Yes\nForced                         : No","torrent":{"xt":"urn:btih:ede98c7023360023b613d6e5417fedffca72836a","amp;dn":"The+7th+Voyage+Of+Sinbad+%281958%29.mkv","amp;tr":["udp%3A%2F%2Ftracker.openbittorrent.com%3A80","udp%3A%2F%2Fopen.demonii.com%3A1337","udp%3A%2F%2Ftracker.coppersurfer.tk%3A6969","udp%3A%2F%2Fexodus.desync.com%3A6969"],"infoHash":"ede98c7023360023b613d6e5417fedffca72836a","infoHashBuffer":{"type":"Buffer","data":[237,233,140,112,35,54,0,35,182,19,214,229,65,127,237,255,202,114,131,106]},"announce":[],"urlList":[]}}